<mxfile host="Electron" agent="Mozilla/5.0 (Windows NT 10.0; Win64; x64) AppleWebKit/537.36 (KHTML, like Gecko) draw.io/24.7.17 Chrome/128.0.6613.36 Electron/32.0.1 Safari/537.36" version="24.7.17">
  <diagram name="Page-1" id="I4t2f6POAnyc5kOOsWyF">
    <mxGraphModel dx="1434" dy="956" grid="1" gridSize="10" guides="1" tooltips="1" connect="1" arrows="1" fold="1" page="1" pageScale="1" pageWidth="850" pageHeight="1100" math="0" shadow="0">
      <root>
        <mxCell id="0" />
        <mxCell id="1" parent="0" />
        <mxCell id="qehVIOw0ZjJXrd-KbMX9-3" style="edgeStyle=orthogonalEdgeStyle;rounded=0;orthogonalLoop=1;jettySize=auto;html=1;exitX=0.5;exitY=1;exitDx=0;exitDy=0;entryX=0.5;entryY=0;entryDx=0;entryDy=0;strokeWidth=3;" edge="1" parent="1" source="qehVIOw0ZjJXrd-KbMX9-1" target="qehVIOw0ZjJXrd-KbMX9-2">
          <mxGeometry relative="1" as="geometry" />
        </mxCell>
        <mxCell id="qehVIOw0ZjJXrd-KbMX9-1" value="&lt;font style=&quot;font-size: 17px;&quot;&gt;Start&lt;/font&gt;" style="ellipse;whiteSpace=wrap;html=1;" vertex="1" parent="1">
          <mxGeometry x="340" width="120" height="80" as="geometry" />
        </mxCell>
        <mxCell id="qehVIOw0ZjJXrd-KbMX9-5" style="edgeStyle=orthogonalEdgeStyle;rounded=0;orthogonalLoop=1;jettySize=auto;html=1;exitX=0.5;exitY=1;exitDx=0;exitDy=0;entryX=0.5;entryY=0;entryDx=0;entryDy=0;fontSize=20;strokeWidth=3;" edge="1" parent="1" source="qehVIOw0ZjJXrd-KbMX9-2" target="qehVIOw0ZjJXrd-KbMX9-4">
          <mxGeometry relative="1" as="geometry" />
        </mxCell>
        <mxCell id="qehVIOw0ZjJXrd-KbMX9-2" value="Set LoRa receiving mode and listen for 5 seconds" style="rounded=0;whiteSpace=wrap;html=1;fontSize=17;" vertex="1" parent="1">
          <mxGeometry x="290" y="160" width="220" height="90" as="geometry" />
        </mxCell>
        <mxCell id="qehVIOw0ZjJXrd-KbMX9-6" style="edgeStyle=orthogonalEdgeStyle;rounded=0;orthogonalLoop=1;jettySize=auto;html=1;entryX=1;entryY=0.5;entryDx=0;entryDy=0;exitX=1;exitY=0.5;exitDx=0;exitDy=0;strokeWidth=4;" edge="1" parent="1" source="qehVIOw0ZjJXrd-KbMX9-4" target="qehVIOw0ZjJXrd-KbMX9-2">
          <mxGeometry relative="1" as="geometry">
            <Array as="points">
              <mxPoint x="570" y="425" />
              <mxPoint x="570" y="205" />
            </Array>
          </mxGeometry>
        </mxCell>
        <mxCell id="qehVIOw0ZjJXrd-KbMX9-13" style="edgeStyle=orthogonalEdgeStyle;rounded=0;orthogonalLoop=1;jettySize=auto;html=1;exitX=0.5;exitY=1;exitDx=0;exitDy=0;entryX=0.5;entryY=0;entryDx=0;entryDy=0;fontSize=12;strokeWidth=4;" edge="1" parent="1" source="qehVIOw0ZjJXrd-KbMX9-4" target="qehVIOw0ZjJXrd-KbMX9-12">
          <mxGeometry relative="1" as="geometry" />
        </mxCell>
        <mxCell id="qehVIOw0ZjJXrd-KbMX9-4" value="&lt;font style=&quot;font-size: 15px;&quot;&gt;Received LoRa packet from LoRa client&lt;/font&gt;" style="rhombus;whiteSpace=wrap;html=1;" vertex="1" parent="1">
          <mxGeometry x="295" y="320" width="210" height="210" as="geometry" />
        </mxCell>
        <mxCell id="qehVIOw0ZjJXrd-KbMX9-7" value="No&lt;div style=&quot;font-size: 18px;&quot;&gt;&lt;br style=&quot;font-size: 18px;&quot;&gt;&lt;/div&gt;" style="text;html=1;align=center;verticalAlign=middle;resizable=0;points=[];autosize=1;strokeColor=none;fillColor=none;fontSize=18;" vertex="1" parent="1">
          <mxGeometry x="520" y="395" width="50" height="60" as="geometry" />
        </mxCell>
        <mxCell id="qehVIOw0ZjJXrd-KbMX9-16" style="edgeStyle=orthogonalEdgeStyle;rounded=0;orthogonalLoop=1;jettySize=auto;html=1;exitX=1;exitY=0.5;exitDx=0;exitDy=0;entryX=0;entryY=0.5;entryDx=0;entryDy=0;" edge="1" parent="1" source="qehVIOw0ZjJXrd-KbMX9-10" target="qehVIOw0ZjJXrd-KbMX9-15">
          <mxGeometry relative="1" as="geometry" />
        </mxCell>
        <mxCell id="qehVIOw0ZjJXrd-KbMX9-18" style="edgeStyle=orthogonalEdgeStyle;rounded=0;orthogonalLoop=1;jettySize=auto;html=1;exitX=0.5;exitY=1;exitDx=0;exitDy=0;entryX=0.5;entryY=0;entryDx=0;entryDy=0;strokeWidth=3;" edge="1" parent="1" source="qehVIOw0ZjJXrd-KbMX9-10" target="qehVIOw0ZjJXrd-KbMX9-17">
          <mxGeometry relative="1" as="geometry" />
        </mxCell>
        <mxCell id="qehVIOw0ZjJXrd-KbMX9-10" value="&lt;font style=&quot;font-size: 15px;&quot;&gt;Is the packet from a regsitered node&lt;/font&gt;" style="rhombus;whiteSpace=wrap;html=1;" vertex="1" parent="1">
          <mxGeometry x="295" y="760" width="210" height="210" as="geometry" />
        </mxCell>
        <mxCell id="qehVIOw0ZjJXrd-KbMX9-14" style="edgeStyle=orthogonalEdgeStyle;rounded=0;orthogonalLoop=1;jettySize=auto;html=1;exitX=0.5;exitY=1;exitDx=0;exitDy=0;entryX=0.5;entryY=0;entryDx=0;entryDy=0;strokeWidth=3;" edge="1" parent="1" source="qehVIOw0ZjJXrd-KbMX9-12" target="qehVIOw0ZjJXrd-KbMX9-10">
          <mxGeometry relative="1" as="geometry" />
        </mxCell>
        <mxCell id="qehVIOw0ZjJXrd-KbMX9-12" value="Decode incoming packet." style="rounded=0;whiteSpace=wrap;html=1;fontSize=17;" vertex="1" parent="1">
          <mxGeometry x="290" y="600" width="220" height="90" as="geometry" />
        </mxCell>
        <mxCell id="qehVIOw0ZjJXrd-KbMX9-15" value="&lt;font style=&quot;font-size: 18px;&quot;&gt;Drop packet&lt;/font&gt;" style="whiteSpace=wrap;html=1;aspect=fixed;" vertex="1" parent="1">
          <mxGeometry x="650" y="825" width="80" height="80" as="geometry" />
        </mxCell>
        <mxCell id="qehVIOw0ZjJXrd-KbMX9-17" value="Send data to ESP8266 over UART" style="rounded=0;whiteSpace=wrap;html=1;fontSize=17;" vertex="1" parent="1">
          <mxGeometry x="290" y="1030" width="220" height="90" as="geometry" />
        </mxCell>
      </root>
    </mxGraphModel>
  </diagram>
</mxfile>
